<?xml version="1.0" standalone="no"?>
<!DOCTYPE svg PUBLIC "-//W3C//DTD SVG 20010904//EN" "http://www.w3.org/TR/2001/REC-SVG-20010904/DTD/svg10.dtd">
<svg version="1.0" xmlns="http://www.w3.org/2000/svg" width="200.000000pt" height="200.000000pt"
        viewBox="0 0 200.000000 200.000000" preserveAspectRatio="xMidYMid meet">

        <g transform="translate(0.000000,200.000000) scale(0.100000,-0.100000)" fill="#484fb4" stroke="none">
                <path d="M920 1407 c-49 -16 -133 -102 -148 -153 -16 -56 -16 -452 0 -508 16
-55 99 -138 154 -154 94 -28 169 -8 239 63 70 69 75 92 75 345 0 253 -5 276
-75 345 -70 71 -152 91 -245 62z m190 -61 c21 -13 48 -42 61 -63 24 -37 24
-43 24 -284 l0 -245 -27 -41 c-41 -62 -90 -88 -168 -88 -78 0 -127 26 -168 88
-27 40 -27 41 -30 263 -2 142 1 237 8 263 13 50 75 116 122 130 53 16 135 6
178 -23z" />
                <path d="M984 1287 c-11 -29 0 -102 16 -102 19 0 22 106 3 112 -7 3 -16 -2
-19 -10z" />
                <path d="M863 464 c-4 -11 16 -38 65 -87 l72 -72 70 70 c38 38 70 75 70 82 0
30 -25 20 -80 -33 l-60 -57 -59 56 c-33 32 -62 57 -66 57 -3 0 -8 -7 -12 -16z" />
        </g>
</svg>